<?xml version="1.0" encoding="utf-8"?>
<!-- Svg Vector Icons : http://www.onlinewebfonts.com/icon -->
<!DOCTYPE svg PUBLIC "-//W3C//DTD SVG 1.1//EN" "http://www.w3.org/Graphics/SVG/1.1/DTD/svg11.dtd">
<svg version="1.1" xmlns="http://www.w3.org/2000/svg" xmlns:xlink="http://www.w3.org/1999/xlink" x="0px" y="0px" viewBox="0 0 1000 1000" enable-background="new 0 0 1000 1000" xml:space="preserve">
<metadata> Svg Vector Icons : http://www.onlinewebfonts.com/icon </metadata>
<g><g transform="translate(0.000000,511.000000) scale(0.100000,-0.100000)"><path fill="#EC1469" d="M4870.4,5043.8l-58.9-56.5v-732.6V3522l58.9-56.5c35.3-37.7,84.8-58.9,129.6-58.9c44.8,0,94.2,21.2,129.6,58.9l58.9,56.5v732.6v732.6l-58.9,56.5c-35.3,37.7-84.8,58.9-129.6,58.9C4955.2,5102.7,4905.8,5081.5,4870.4,5043.8z"/><path fill="#EC1469" d="M1537,3665.7c-30.6-30.6-47.1-77.7-47.1-134.3c0-82.5,28.3-117.8,513.6-600.7c459.4-459.4,520.6-513.6,588.9-513.6c103.7,0,193.2,89.5,193.2,193.2c0,68.3-54.2,129.6-513.6,588.9c-482.9,485.3-518.3,513.5-600.7,513.5C1614.8,3712.8,1567.6,3696.3,1537,3665.7z"/><path fill="#EC1469" d="M7728,3199.3c-459.4-459.4-513.6-520.6-513.6-588.9c0-51.8,18.8-96.6,58.9-134.3c37.7-40,82.5-58.9,134.3-58.9c68.3,0,129.6,54.2,588.9,513.6c485.3,482.9,513.6,518.3,513.6,600.7c0,56.5-16.5,103.7-47.1,134.3c-30.6,30.6-77.7,47.1-134.3,47.1C8246.2,3712.8,8210.9,3684.5,7728,3199.3z"/><path fill="#EC1469" d="M4682,3015.5c-695-106-1213.2-360.4-1675-819.8c-386.3-388.7-633.7-829.2-770.3-1380.5c-47.1-193.2-49.5-261.5-56.5-2242.7c-9.4-2266.2-18.8-2146.1,148.4-2270.9l87.2-68.3l2553.7-7.1c2845.8-7.1,2650.2-16.5,2782.2,155.5l63.6,82.5v2040.1c0,2207.3,2.3,2160.2-131.9,2574.8c-136.6,421.7-365.1,789.2-690.3,1116.6c-400.5,400.5-869.3,654.9-1432.3,777.4C5393.4,3008.4,4825.7,3036.7,4682,3015.5z M5365.1,2240.5c784.5-136.6,1411.1-716.2,1644.3-1519.5c49.5-174.3,49.5-209.7,58.9-1960l7.1-1785.7H5000H2926.9v1693.8c0,1411.1,7.1,1726.8,35.3,1898.7C3157.8,1686.9,4236.7,2436,5365.1,2240.5z"/><path fill="#EC1469" d="M4870.4,1651.5c-129.6-127.2-35.3-318,157.8-318c362.8,0,782.1-256.8,958.8-586.6C6130.8,476,6130.8,476,6130.8-1088.2v-1420.5l58.9-56.6c75.4-77.7,183.7-77.7,259.1,0l58.9,56.6v1432.3c0,1616-2.3,1627.8-169.6,1962.3c-197.9,393.4-593.7,699.7-1020,789.2C5063.6,1729.3,4938.7,1722.2,4870.4,1651.5z"/><path fill="#EC1469" d="M158.9,332.3C121.2,297,100,247.5,100,202.7c0-44.8,21.2-94.2,58.9-129.6l56.5-58.9h732.6h732.6l56.5,58.9c77.7,75.4,77.7,183.7,0,259.1l-56.5,58.9H948.1H215.4L158.9,332.3z"/><path fill="#EC1469" d="M8262.7,332.3c-37.7-35.3-58.9-84.8-58.9-129.6c0-44.8,21.2-94.2,58.9-129.6l56.5-58.9h732.6h732.6l56.5,58.9c37.7,35.3,58.9,84.8,58.9,129.6c0,44.8-21.2,94.2-58.9,129.6l-56.5,58.9h-732.6h-732.6L8262.7,332.3z"/><path fill="#EC1469" d="M889.2-4164.9c-157.8-68.3-247.4-249.7-214.4-426.4c21.2-110.7,139-240.3,245-270.9c61.2-18.8,1368.7-23.6,4226.3-18.8c4136.7,7.1,4139.1,7.1,4202.7,56.5c124.9,91.9,162.6,167.3,162.6,315.7s-37.7,223.8-162.6,315.7l-63.6,49.5l-4162.7,4.7C1697.2-4134.2,948.1-4139,889.2-4164.9z"/></g></g>
</svg>
