<svg xmlns="http://www.w3.org/2000/svg" style="width:0;height:0;position:absolute" visibility="hidden">
  <symbol id="icon_key" width="40" height="18" viewBox="0 0 40 18">
    <g>
      <g>
        <path fill="currentColor"
          d="M14.948 14.948a3.184 3.184 0 0 1-4.551-.002c-.896-.891-1.303-.891-1.499-.891-.195 0-.602 0-1.5.893a3.183 3.183 0 0 1-4.549 0c-1.318-1.32-1.318-3.233.002-4.552.89-.895.89-1.303.89-1.498 0-.196 0-.603-.893-1.501-.637-.637-.988-1.445-.988-2.274 0-.83.351-1.637.988-2.275A3.184 3.184 0 0 1 7.4 2.85c.896.89 1.303.89 1.498.89.207 0 .638 0 1.426-.892a3.273 3.273 0 0 1 4.624 0c.637.638.988 1.459.988 2.313 0 .852-.35 1.674-.948 2.272-.932.828-.932 1.258-.932 1.465 0 .195 0 .603.892 1.5 1.317 1.317 1.317 3.23 0 4.55zm2.021-7.042c1.287-1.991 1.052-4.612-.707-6.372-2.033-2.034-5.218-2.034-7.29.04l-.101.11a5.199 5.199 0 0 1-.159-.15C6.666-.51 3.58-.51 1.535 1.534-.511 3.58-.511 6.665 1.532 8.708c.058.059.12.125.177.19a5.128 5.128 0 0 1-.174.186c-2.046 2.046-2.046 5.13 0 7.177 1.023 1.024 2.306 1.535 3.589 1.535 1.282 0 2.565-.511 3.586-1.533a5.24 5.24 0 0 1 .188-.176c.064.057.129.118.187.174 2.046 2.047 5.13 2.045 7.178 0 1.792-1.793 2.013-4.384.666-6.372h14.274v5.374h1.487V9.889h2.23v5.374h1.487V9.889H40V7.906z" />
      </g>
    </g>
  </symbol>

  <symbol id="icon_facbook" width="7" height="15" viewBox="0 0 7 15">
    <g>
      <g>
        <path fill="currentColor"
          d="M4.477 4.924v-1.79c0-.494.4-.896.895-.896h.896V0H4.476A2.686 2.686 0 0 0 1.79 2.686v2.238H0v2.239h1.79v7.163h2.687V7.163h1.79l.896-2.239z" />
      </g>
    </g>
  </symbol>

  <symbol id="icon_naver" width="11" height="11" viewBox="0 0 11 11">
    <g>
      <g>
        <path fill="currentColor" d="M6.96 0v5.167L3.586 0H0v10.546h3.586V5.273l3.374 5.273h3.586V0z" />
      </g>
    </g>
  </symbol>

  <symbol id="icon_instagram" width="16" height="16" viewBox="0 0 16 16">
    <g>
      <g>
        <g>
          <path fill="currentColor"
            d="M14.294 11.357a2.94 2.94 0 0 1-2.937 2.937H4.328a2.94 2.94 0 0 1-2.936-2.937V4.329a2.94 2.94 0 0 1 2.936-2.937h7.029a2.94 2.94 0 0 1 2.937 2.937v7.028zM11.357 0H4.328A4.333 4.333 0 0 0 0 4.329v7.028a4.333 4.333 0 0 0 4.328 4.328h7.029a4.334 4.334 0 0 0 4.328-4.328V4.329A4.333 4.333 0 0 0 11.357 0z" />
        </g>
        <g>
          <path fill="currentColor"
            d="M7.843 10.493a2.653 2.653 0 0 1-2.65-2.65 2.653 2.653 0 0 1 2.65-2.65 2.653 2.653 0 0 1 2.65 2.65 2.653 2.653 0 0 1-2.65 2.65zm0-6.692A4.046 4.046 0 0 0 3.8 7.843a4.046 4.046 0 0 0 4.042 4.041 4.046 4.046 0 0 0 4.041-4.041A4.046 4.046 0 0 0 7.843 3.8z" />
        </g>
        <g>
          <path fill="currentColor"
            d="M12.054 2.621a1.025 1.025 0 0 0-1.02 1.02c0 .269.109.532.299.722.19.19.453.3.72.3.27 0 .532-.11.723-.3a1.025 1.025 0 0 0 0-1.444 1.025 1.025 0 0 0-.722-.298z" />
        </g>
      </g>
    </g>
  </symbol>


  <symbol id="icon_gallery" width="15" height="13" viewBox="0 0 15 13">
    <g>
      <g>
        <path fill="#ff5f9e" d="M6.45 9.816L9.634 4.41l4.084 7.189H1l3.174-5.387 2.275 3.603z" />
        <path fill="none" stroke="#ff5f9e" stroke-miterlimit="50" stroke-width=".5"
          d="M6.45 9.816L9.634 4.41l4.084 7.189H1l3.174-5.387 2.275 3.603z" />
      </g>
      <g>
        <path fill="#ff5f9e"
          d="M4.702 1c.838-.001 1.5.663 1.497 1.501A1.5 1.5 0 0 1 4.69 3.999 1.518 1.518 0 0 1 3.2 2.504 1.501 1.501 0 0 1 4.702 1z" />
        <path fill="none" stroke="#ff5f9e" stroke-miterlimit="50" stroke-width=".5"
          d="M4.702 1c.838-.001 1.5.663 1.497 1.501A1.5 1.5 0 0 1 4.69 3.999 1.518 1.518 0 0 1 3.2 2.504 1.501 1.501 0 0 1 4.702 1z" />
      </g>
    </g>
  </symbol>

  <symbol id="icon_create_user" width="20" height="16" viewBox="0 0 20 16">
    <g>
      <g>
        <g>
          <g>
            <path fill="#ec1469"
              d="M12 8a3.379 3.379 0 0 1-3.375-3.375A3.379 3.379 0 0 1 12 1.25a3.379 3.379 0 0 1 3.375 3.375A3.379 3.379 0 0 1 12 8zm5.657 2.343a7.97 7.97 0 0 0-3.04-1.907 4.623 4.623 0 0 0 2.008-3.811A4.63 4.63 0 0 0 12 0a4.63 4.63 0 0 0-4.625 4.625c0 1.58.796 2.977 2.008 3.811a7.97 7.97 0 0 0-3.04 1.907A7.948 7.948 0 0 0 4 16h1.25A6.758 6.758 0 0 1 12 9.25 6.758 6.758 0 0 1 18.75 16H20a7.948 7.948 0 0 0-2.343-5.657z" />
          </g>
        </g>
      </g>
      <g>
        <g>
          <g>
            <path fill="#ec1469"
              d="M5.541 5.52H3.34V3.319c0-.1-.137-.318-.409-.318-.273 0-.409.218-.409.318V5.52H.32c-.1 0-.318.136-.318.408 0 .273.217.409.318.409H2.52v2.203c0 .1.137.318.409.318.273 0 .409-.218.409-.318V6.338H5.54c.1 0 .318-.136.318-.409 0-.272-.217-.408-.318-.408z" />
          </g>
        </g>
      </g>
    </g>
  </symbol>

  <symbol id="icon_forgot_password" width="16" height="17" viewBox="0 0 16 17">
    <g>
      <g>
        <g>
          <g>
            <g>
              <path fill="#ec1469" d="M8.338 11.028a.609.609 0 1 1 1.217 0 .609.609 0 0 1-1.217 0z" />
            </g>
            <g>
              <path fill="#ec1469"
                d="M5.278 3.88c0-1.335 1.127-2.421 2.512-2.421s2.512 1.086 2.512 2.42v2.205H5.278zm5.81 11.079H3.27c-.692 0-1.256-.56-1.256-1.25V8.584c0-.69.564-1.25 1.256-1.25h9.044c.143 0 .257.013.347.038a.625.625 0 1 0 .346-1.202 2.507 2.507 0 0 0-.693-.086h-.755V3.88c0-2.024-1.69-3.671-3.768-3.671s-3.768 1.647-3.768 3.67v2.205h-.753a2.509 2.509 0 0 0-2.512 2.5v5.125c0 1.378 1.127 2.5 2.512 2.5h7.82c.346 0 .628-.28.628-.625a.627.627 0 0 0-.629-.625z" />
            </g>
            <g>
              <path fill="#ec1469" d="M5.988 11.028a.609.609 0 1 1 1.218 0 .609.609 0 0 1-1.218 0z" />
            </g>
            <g>
              <path fill="#ec1469"
                d="M15.76 10.707A2.164 2.164 0 0 0 13.6 8.57c-1.192 0-2.162.97-2.162 2.162a.609.609 0 1 0 1.218 0 .945.945 0 1 1 1.314.87c-.594.253-.979.84-.979 1.494v.526a.609.609 0 0 0 1.218 0v-.526c0-.166.094-.313.24-.375a2.16 2.16 0 0 0 1.312-2.014z" />
            </g>
            <g>
              <path fill="#ec1469" d="M12.988 15.6a.609.609 0 1 1 1.217 0 .609.609 0 0 1-1.217 0z" />
            </g>
            <g>
              <path fill="#ec1469" d="M3.639 11.028a.609.609 0 1 1 1.217 0 .609.609 0 0 1-1.217 0z" />
            </g>
          </g>
        </g>
      </g>
    </g>
  </symbol>


  <symbol id="icon_check" width="12" height="9" viewBox="0 0 12 9">
    <g>
      <g>
        <path fill="currentColor"
          d="M4.123 8.246a.906.906 0 0 1-.643-.266L.266 4.766A.909.909 0 1 1 1.552 3.48l2.571 2.571L9.908.266a.909.909 0 1 1 1.286 1.286L4.766 7.98a.907.907 0 0 1-.643.266z" />
      </g>
    </g>
  </symbol>


  <symbol id="icon_email" width="18" height="13" viewBox="0 0 18 13">
    <g>
      <g>
        <g>
          <path fill="currentColor"
            d="M16.65 11.731c0 .151-.122.273-.273.273H1.622a.273.273 0 0 1-.273-.273V.802c0-.15.123-.273.273-.273h14.755c.15 0 .273.122.273.273zM16.377-.017H1.622a.82.82 0 0 0-.82.82V11.73c0 .453.368.82.82.82h14.755a.82.82 0 0 0 .82-.82V.802a.82.82 0 0 0-.82-.82z" />
        </g>
        <g>
          <path fill="currentColor"
            d="M15.854 1.076a.273.273 0 0 0-.2.063L9.351 6.434c-.203.171-.5.171-.703 0L2.345 1.14a.273.273 0 0 0-.352.419l6.304 5.295c.406.342 1 .342 1.406 0l6.303-5.295a.273.273 0 0 0-.152-.482z" />
        </g>
        <g>
          <path fill="currentColor"
            d="M6.058 6.815a.273.273 0 0 0-.264.085L1.97 10.998a.273.273 0 1 0 .4.373l3.825-4.098a.273.273 0 0 0-.136-.458z" />
        </g>
        <g>
          <path fill="currentColor" d="M12.205 6.9a.273.273 0 1 0-.4.373l3.825 4.098a.273.273 0 0 0 .4-.373z" />
        </g>
      </g>
    </g>
  </symbol>

  <symbol id="icon_pencil" width="14" height="14" viewBox="0 0 14 14">
    <g>
      <g>
        <path fill="currentColor"
          d="M12.438 4.071l-2.51-2.508.36-.359 2.508 2.509zm-8 7.283l5.67-5.67a.253.253 0 1 0-.358-.359l-5.67 5.671-1.21.134.134-1.209 5.671-5.67a.253.253 0 1 0-.358-.359l-5.671 5.67-.807.09 7.015-7.014 2.509 2.508-7.015 7.015zm-3.18 1.389c-.1-.1-.26-.1-.359 0l-.192.192.648-2.719 1.12-.124-.144 1.298c-.001.01.002.018.002.028 0 .01-.003.018-.002.027 0 .009.005.016.007.024a.257.257 0 0 0 .062.12.254.254 0 0 0 .127.072c.01.002.018.007.028.008a.25.25 0 0 0 .027.002h.001c.01 0 .019 0 .028-.002l1.298-.144-.125 1.12-2.718.648.191-.192a.254.254 0 0 0 0-.358zM11.72 4.788L9.212 2.279l.359-.358 2.508 2.509zm1.254-3.763c.63.63.684 1.621.165 2.315L10.66.86a1.775 1.775 0 0 1 2.315.165zm.359-.358a2.284 2.284 0 0 0-3.226 0L.97 9.805l-.01.014c-.006.006-.01.013-.015.02a.246.246 0 0 0-.032.06l-.007.019-.003.007-.896 3.763a.251.251 0 0 0-.006.051v.01a.252.252 0 0 0 .023.102.253.253 0 0 0 .05.075.255.255 0 0 0 .238.068l3.763-.896.02-.008a.235.235 0 0 0 .075-.04l.019-.015.006-.005 9.138-9.138c.89-.89.89-2.336 0-3.225z" />
      </g>
    </g>
  </symbol>

  <symbol id="icon_alarm" width="15" height="17" viewBox="0 0 15 17">
    <g>
      <g>
        <g>
          <path fill="currentColor"
            d="M11.647 14.42a37.98 37.98 0 0 1-1.65.251h-.003c-.226.029-.446.054-.661.075l-.007.001c-.197.02-.39.036-.58.05l-.108.007c-.165.01-.329.02-.49.026-.034 0-.068.003-.1.004a17.13 17.13 0 0 1-1.851-.038c-.186-.013-.373-.029-.565-.047l-.02-.002a24.96 24.96 0 0 1-.657-.075h-.003a37.538 37.538 0 0 1-1.657-.252l-2.368-.409c1.231-1.407 1.855-3.103 1.855-5.047v-2.78c.01-1.68 1.201-2.979 2.377-3.521.35-.161.712-.281 1.08-.366h.01a5.62 5.62 0 0 1 2.343-.022h.012c.403.084.8.211 1.183.386 1.14.521 2.286 1.812 2.275 3.521v2.782c0 1.865.672 3.599 1.951 5.048zm-4.172 1.962a2.477 2.477 0 0 1-1.984-1.025c.691.071 1.336.107 1.98.107.647 0 1.294-.036 1.988-.108a2.478 2.478 0 0 1-1.984 1.026zM6.49 1.545a.928.928 0 0 1 1.854 0v.057a6.146 6.146 0 0 0-1.854.014zM14.85 14c-1.44-1.431-2.17-3.126-2.17-5.035v-2.78c.013-2.12-1.413-3.526-2.637-4.085a6.214 6.214 0 0 0-1.08-.376v-.178C8.964.693 8.27 0 7.418 0c-.852 0-1.545.693-1.545 1.545v.205a6.12 6.12 0 0 0-.972.352c-1.354.623-2.725 2.127-2.737 4.08v2.782c0 1.974-.698 3.668-2.073 5.035a.31.31 0 0 0 .165.524l2.934.507c.546.094 1.05.171 1.528.235.54 1.057 1.6 1.735 2.757 1.735s2.217-.679 2.756-1.736c.477-.064.977-.14 1.52-.235l2.934-.506a.309.309 0 0 0 .166-.524z" />
        </g>
        <g>
          <path fill="currentColor"
            d="M9.159 3.531a4.375 4.375 0 0 0-3.57 0c-.628.29-1.694 1.138-1.703 2.478 0 .159.126.287.285.288h.001a.286.286 0 0 0 .287-.284c.006-1.053.864-1.728 1.37-1.961a3.79 3.79 0 0 1 3.092 0 .287.287 0 0 0 .238-.52z" />
        </g>
      </g>
    </g>
  </symbol>

  <symbol id="icon_setting" width="17" height="17" viewBox="0 0 17 17">
    <g>
      <g>
        <g>
          <g>
            <g>
              <path fill="currentColor"
                d="M16.206 9.26c0 .048-.035.09-.081.097-.315.047-.638.092-.96.134a.889.889 0 0 0-.746.645 6.108 6.108 0 0 1-.576 1.392.89.89 0 0 0 .07.983c.198.258.395.519.584.775a.097.097 0 0 1-.01.126l-1.075 1.075a.098.098 0 0 1-.126.01c-.256-.189-.516-.385-.775-.584a.889.889 0 0 0-.983-.07 6.109 6.109 0 0 1-1.392.577.889.889 0 0 0-.645.744 51.48 51.48 0 0 1-.134.96.097.097 0 0 1-.097.082H7.74a.097.097 0 0 1-.097-.081 52.033 52.033 0 0 1-.134-.96.889.889 0 0 0-.645-.745 6.106 6.106 0 0 1-1.392-.577.886.886 0 0 0-.983.07c-.259.199-.52.395-.775.584a.097.097 0 0 1-.126-.01l-1.074-1.075a.097.097 0 0 1-.011-.126c.19-.256.386-.516.584-.775a.89.89 0 0 0 .07-.983 6.107 6.107 0 0 1-.576-1.392.889.889 0 0 0-.745-.645 52.22 52.22 0 0 1-.96-.134.097.097 0 0 1-.082-.097V7.74c0-.048.035-.09.081-.096.315-.048.638-.093.96-.135.358-.046.65-.3.746-.645.133-.485.327-.953.576-1.392a.89.89 0 0 0-.07-.983 52.272 52.272 0 0 1-.584-.775.097.097 0 0 1 .01-.126l1.075-1.074a.097.097 0 0 1 .126-.011c.256.189.516.386.775.584a.89.89 0 0 0 .983.07 6.107 6.107 0 0 1 1.392-.576.889.889 0 0 0 .645-.745c.042-.323.087-.646.134-.96A.097.097 0 0 1 7.74.793h1.52c.048 0 .09.035.097.081.047.315.092.638.134.961.047.357.3.65.645.745a6.11 6.11 0 0 1 1.392.577.89.89 0 0 0 .983-.07c.259-.2.52-.396.775-.585a.097.097 0 0 1 .126.01l1.074 1.075a.097.097 0 0 1 .011.126c-.19.256-.386.517-.584.775a.89.89 0 0 0-.07.983c.249.439.443.907.577 1.392a.889.889 0 0 0 .744.645c.323.042.646.087.96.135a.097.097 0 0 1 .082.096v1.52zm.036-2.402c-.32-.048-.648-.093-.975-.136a.096.096 0 0 1-.082-.069 6.9 6.9 0 0 0-.652-1.573.097.097 0 0 1 .009-.107c.201-.262.401-.527.593-.787a.896.896 0 0 0-.087-1.16l-1.075-1.074a.896.896 0 0 0-1.16-.087c-.259.192-.523.391-.786.593a.097.097 0 0 1-.107.01 6.9 6.9 0 0 0-1.573-.653.096.096 0 0 1-.069-.082 52.7 52.7 0 0 0-.136-.975A.896.896 0 0 0 9.26 0H7.74a.896.896 0 0 0-.882.758c-.047.32-.093.647-.136.975a.096.096 0 0 1-.069.082 6.902 6.902 0 0 0-1.573.652.097.097 0 0 1-.107-.009 52.336 52.336 0 0 0-.787-.593.896.896 0 0 0-1.16.087L1.953 3.027a.896.896 0 0 0-.087 1.16c.192.26.392.524.593.786a.097.097 0 0 1 .01.107 6.9 6.9 0 0 0-.653 1.573.096.096 0 0 1-.082.069c-.327.043-.655.088-.975.136A.896.896 0 0 0 0 7.74v1.52c0 .438.326.817.758.882.32.048.648.093.975.136.04.005.072.032.082.069a6.9 6.9 0 0 0 .652 1.573.097.097 0 0 1-.009.107c-.201.262-.401.527-.593.787a.896.896 0 0 0 .087 1.16l1.075 1.074c.31.31.808.347 1.16.087.259-.192.523-.391.786-.593a.097.097 0 0 1 .107-.01 6.9 6.9 0 0 0 1.573.653c.037.01.064.042.069.082.043.328.089.656.136.975A.896.896 0 0 0 7.74 17h1.52a.896.896 0 0 0 .882-.758c.047-.32.093-.648.136-.975a.097.097 0 0 1 .069-.082 6.903 6.903 0 0 0 1.573-.652.097.097 0 0 1 .107.009c.262.202.527.401.787.593.35.26.85.222 1.16-.087l1.074-1.075a.896.896 0 0 0 .087-1.16c-.192-.26-.392-.524-.593-.786a.097.097 0 0 1-.01-.107c.282-.495.502-1.025.653-1.573a.097.097 0 0 1 .082-.069c.327-.043.655-.089.975-.136A.896.896 0 0 0 17 9.26V7.74a.896.896 0 0 0-.758-.882z" />
            </g>
          </g>
        </g>
        <g>
          <g>
            <g>
              <path fill="currentColor"
                d="M8.5 11.255A2.758 2.758 0 0 1 5.745 8.5 2.758 2.758 0 0 1 8.5 5.745 2.758 2.758 0 0 1 11.255 8.5 2.758 2.758 0 0 1 8.5 11.255zm0-6.265A3.514 3.514 0 0 0 4.99 8.5a3.514 3.514 0 0 0 3.51 3.51 3.514 3.514 0 0 0 3.51-3.51A3.514 3.514 0 0 0 8.5 4.99z" />
            </g>
          </g>
        </g>
      </g>
    </g>
  </symbol>

  <symbol id="icon_logout" width="16" height="15" viewBox="0 0 16 15">
    <g>
      <g>
        <g>
          <path fill="currentColor"
            d="M1.748 0h5.906c.97 0 1.764.804 1.764 1.775v1.569a.44.44 0 0 1-.88 0V1.775A.897.897 0 0 0 7.654.88H1.748c-.486 0-.868.41-.868.895v11.381a.873.873 0 0 0 .863.884h5.91a.888.888 0 0 0 .885-.884V11.62a.44.44 0 1 1 .88 0v1.536a1.769 1.769 0 0 1-1.764 1.764H1.748A1.754 1.754 0 0 1 0 13.16V1.775C0 .805.777 0 1.748 0z" />
        </g>
        <g>
          <path fill="currentColor"
            d="M13.83 7.922H3.412a.44.44 0 0 1 0-.88h10.514l-2.258-2.61a.445.445 0 0 1 .044-.625.44.44 0 0 1 .62.041l2.847 3.279a.44.44 0 0 1-.021.694l-2.847 2.846a.44.44 0 0 1-.622 0 .43.43 0 0 1-.006-.608l.006-.006z" />
        </g>
      </g>
    </g>
  </symbol>

  <symbol id="icon_arrow" width="16" height="7" viewBox="0 0 16 7">
    <g>
      <g>
        <path fill="currentColor" d="M15.754 1.308L13.916 0 7.877 4.297 1.838 0 0 1.308l7.877 5.604z" />
      </g>
    </g>
  </symbol>

  <symbol id="icon_secret_garden" width="26" height="12" viewBox="0 0 26 12">
    <g>
      <g>
        <path fill="#ec1469"
          d="M9.526 9.526a2.029 2.029 0 0 1-2.9 0c-.572-.569-.831-.569-.956-.569s-.384 0-.956.57a2.028 2.028 0 0 1-2.9 0c-.84-.841-.84-2.06.002-2.902.567-.57.567-.83.567-.954 0-.125 0-.385-.569-.957-.406-.406-.63-.921-.63-1.45 0-.527.224-1.042.63-1.449a2.029 2.029 0 0 1 2.901.002c.571.567.83.567.955.567.132 0 .407 0 .909-.569a2.086 2.086 0 0 1 2.947 0c.406.407.63.93.63 1.474 0 .543-.224 1.067-.605 1.448-.594.528-.594.802-.594.934 0 .124 0 .384.569.956.839.84.839 2.059 0 2.9zm1.288-4.487c.82-1.27.67-2.94-.451-4.061-1.296-1.296-3.326-1.296-4.646.026a3.524 3.524 0 0 1-.065.07 3.257 3.257 0 0 1-.1-.096C4.247-.326 2.28-.326.977.978-.327 2.282-.327 4.248.975 5.55c.037.037.077.08.113.12l-.11.12c-1.305 1.303-1.305 3.27 0 4.573.651.653 1.469.979 2.287.979.817 0 1.634-.326 2.285-.978a3.4 3.4 0 0 1 .12-.112c.04.037.082.075.119.111 1.304 1.305 3.27 1.304 4.574 0 1.142-1.142 1.284-2.793.425-4.06h9.097v3.424h.948V6.302h1.42v3.425h.948V6.302h2.29V5.04z" />
      </g>
    </g>
  </symbol>

  <symbol id="icon_flea_market" width="18" height="17" viewBox="0 0 18 17">
    <g>
      <g>
        <g>
          <g>
            <g>
              <path fill="#ec1469"
                d="M7.576 15.688a.766.766 0 1 1 .002-1.532.766.766 0 0 1-.002 1.532zm0-2.497c-.955 0-1.732.777-1.732 1.732 0 .956.777 1.733 1.732 1.733.956 0 1.733-.777 1.733-1.733 0-.955-.777-1.732-1.733-1.732z" />
            </g>
          </g>
        </g>
        <g>
          <g>
            <g>
              <path fill="#ec1469"
                d="M13.017 15.688a.766.766 0 1 1 .002-1.532.766.766 0 0 1-.002 1.532zm0-2.497c-.955 0-1.732.777-1.732 1.732 0 .956.777 1.733 1.732 1.733.956 0 1.733-.777 1.733-1.733 0-.955-.778-1.732-1.733-1.732z" />
            </g>
          </g>
        </g>
        <g>
          <g>
            <g>
              <path fill="#ec1469" d="M13.705 5.128H6.774a.484.484 0 1 0 0 .967h6.93a.484.484 0 1 0 0-.967z" />
            </g>
          </g>
        </g>
        <g>
          <g>
            <g>
              <path fill="#ec1469" d="M13.34 7.41H7.164a.484.484 0 1 0 0 .968h6.176a.484.484 0 0 0 0-.967z" />
            </g>
          </g>
        </g>
        <g>
          <g>
            <g>
              <path fill="#ec1469"
                d="M15.88 9.465H4.766L3.531 3.637h13.584zm1.92-6.37a.89.89 0 0 0-.685-.317H3.35l-.278-1.31a.865.865 0 0 0-.514-.615L.617.035a.447.447 0 0 0-.58.223.425.425 0 0 0 .229.565l1.94.818 2.138 10.082a.881.881 0 0 0 .866.686h10.587a.436.436 0 0 0 .442-.43.436.436 0 0 0-.442-.429H5.21l-.26-1.226h10.93a.881.881 0 0 0 .865-.686l1.236-5.828a.837.837 0 0 0-.18-.715z" />
            </g>
          </g>
        </g>
      </g>
    </g>
  </symbol>

  <symbol id="icon_alvar" width="23" height="14" viewBox="0 0 23 14">
    <g>
      <g>
        <g>
          <g>
            <g>
              <path fill="#ec1469"
                d="M21.833 11.017H16.24v-.31-.089-.689l-.018-.064v-.127l-.036-.101a3.525 3.525 0 0 0-1.906-1.997 2.79 2.79 0 0 1 .562-.611 2.72 2.72 0 0 1 1.341-.353h2.906a2.753 2.753 0 0 1 2.745 2.746zm-6.35-.184v1.595H7.095V10.72v-.135-.339l.015-.062.026-.093.018-.062a2.76 2.76 0 0 1 2.61-1.896l.076-.041h2.905a2.756 2.756 0 0 1 2.722 2.395c0 .057 0 .114.016.171v.176zm-9.111-.337v.518H.752V9.422a2.753 2.753 0 0 1 2.745-2.746H6.4c.47 0 .933.121 1.342.353.274.155.52.355.728.593a3.514 3.514 0 0 0-2.098 2.874zm9.813-4.57c-.6 0-1.19.154-1.712.45a3.53 3.53 0 0 0-1.127 1.013 3.48 3.48 0 0 0-.6-.052H9.84c-.202 0-.403.017-.601.052a3.528 3.528 0 0 0-1.127-1.013 3.469 3.469 0 0 0-1.712-.45H3.497A3.504 3.504 0 0 0 .001 9.421v1.97c.002.207.17.373.376.373h5.956v1.036c0 .208.168.376.376.376h9.157a.376.376 0 0 0 .376-.376v-1.036h5.956a.376.376 0 0 0 .376-.375V9.422a3.504 3.504 0 0 0-3.486-3.497z" />
            </g>
          </g>
        </g>
        <g>
          <g>
            <g>
              <path fill="#ec1469"
                d="M6.287 3.983a1.893 1.893 0 1 1-2.678-2.677 1.893 1.893 0 0 1 2.678 2.677zM6.817.78a2.644 2.644 0 1 0-3.744 3.734A2.644 2.644 0 0 0 6.817.781z" />
            </g>
          </g>
        </g>
        <g>
          <g>
            <g>
              <path fill="#ec1469"
                d="M18.977 3.982a1.893 1.893 0 1 1-2.678-2.677 1.893 1.893 0 0 1 2.678 2.677zM17.64 0a2.644 2.644 0 1 0-.005 5.288A2.644 2.644 0 0 0 17.64 0z" />
            </g>
          </g>
        </g>
        <g>
          <g>
            <g>
              <path fill="#ec1469"
                d="M11.292 5.95a1.893 1.893 0 1 1 .001-3.786 1.893 1.893 0 0 1 0 3.787zm1.867-3.768a2.642 2.642 0 1 0-3.73 3.742 2.642 2.642 0 0 0 3.73-3.742z" />
            </g>
          </g>
        </g>
      </g>
    </g>
  </symbol>

  <symbol id="icon_school" width="21" height="21" viewBox="0 0 21 21">
    <g>
      <g>
        <path fill="#ec1469"
          d="M19.676 19.676h-5.767v-9.69l5.767 2.124zm-7.803-2.714h-.34a.34.34 0 0 0 0 .678h.34v2.036H8.481v-3.732a1.696 1.696 0 0 1 3.392 0zm-4.75-7.463V6.622l3.054-2.137 3.053 2.137v13.054h-.678v-3.732a2.375 2.375 0 0 0-4.75 0v3.732h-.678zM.68 12.109l5.767-2.124v9.69H.678zm-.118-.318l.117.319M13.23 1.053v1.354l-2.714.271V1.325zm6.68 10.42l-6.001-2.211V7.097l.428.3a.34.34 0 0 0 .39-.556l-4.21-2.947V3.36l3.086-.309a.34.34 0 0 0 .306-.337V.678a.34.34 0 0 0-.374-.337l-3.019.302V.339a.34.34 0 0 0-.678 0v3.555L5.605 6.858a.339.339 0 1 0 .388.555l.452-.316v2.165l-6.001 2.21A.68.68 0 0 0 0 12.11v7.566a.68.68 0 0 0 .678.678h18.998a.68.68 0 0 0 .678-.678V12.11a.68.68 0 0 0-.444-.637z" />
      </g>
    </g>
  </symbol>

  <symbol id="icon_learning" width="20" height="20" viewBox="0 0 20 20">
    <g>
      <g>
        <g>
          <path fill="#ec1469"
            d="M18.829 13.511a.587.587 0 0 1-1.172 0v-1.172a.587.587 0 0 1 1.172 0zm-1.172 2.938c-2.66.078-4.944.693-7.07 1.91v-6.874c2.104-1.34 4.317-1.988 7.07-2.067v1.264a1.76 1.76 0 0 0-1.172 1.657v1.172c0 .764.49 1.415 1.172 1.657zM10 10.47a13.926 13.926 0 0 0-3.409-1.567 4.11 4.11 0 0 1 2.237-.665h2.344c.8 0 1.577.236 2.237.665A13.925 13.925 0 0 0 10 10.47zm-.586 7.89c-2.127-1.217-4.41-1.832-7.07-1.91v-1.28a1.76 1.76 0 0 0 1.172-1.658v-1.172a1.76 1.76 0 0 0-1.172-1.657V9.418c2.753.079 4.966.727 7.07 2.067zm-7.656-4.262a.587.587 0 0 1-.586-.586v-1.172a.587.587 0 0 1 1.172 0v1.172a.587.587 0 0 1-.586.586zM7.07 4.136c0-1.637 1.314-2.97 2.93-2.97 1.615 0 2.93 1.333 2.93 2.97A2.933 2.933 0 0 1 10 7.066a2.933 2.933 0 0 1-2.93-2.93zm11.758 6.546V8.823a.586.586 0 0 0-.586-.586c-1.21 0-2.34.102-3.405.311a5.29 5.29 0 0 0-2.2-1.274 4.094 4.094 0 0 0 1.464-3.138c0-2.284-1.84-4.141-4.102-4.141C7.74-.005 5.9 1.852 5.9 4.135c0 1.259.57 2.386 1.464 3.14a5.291 5.291 0 0 0-2.2 1.273 17.68 17.68 0 0 0-3.405-.31.586.586 0 0 0-.586.585v1.859A1.76 1.76 0 0 0 0 12.339v1.172c0 .764.49 1.415 1.172 1.657v1.859c0 .323.262.586.586.586 3.064 0 5.58.726 7.917 2.284.196.13.454.131.65 0 2.338-1.558 4.854-2.284 7.918-2.284a.586.586 0 0 0 .586-.586v-1.859a1.76 1.76 0 0 0 1.172-1.657v-1.172a1.76 1.76 0 0 0-1.172-1.657z" />
        </g>
      </g>
    </g>
  </symbol>

  <symbol id="icon_bud_member" width="22" height="20" viewBox="0 0 22 20">
    <g>
      <g>
        <g>
          <path fill="#ec1469"
            d="M21.916 11.712a.44.44 0 0 0-.004-.04L20.81 4a.43.43 0 0 0-.586-.338l-5.075 2.04a.43.43 0 0 0 .32.798l4.568-1.836 1.017 7.08c0 .02.003.04.006.06a5.73 5.73 0 0 1-.686 3.817 5.686 5.686 0 0 1-3.484 2.668 5.72 5.72 0 0 1-4.36-.579l-.029-.014c.285-.217.553-.451.804-.702l5.03-1.348a.43.43 0 1 0-.222-.83l-3.87 1.037c.424-.633.757-1.331.985-2.078l3.453-.925a.43.43 0 1 0-.222-.83l-2.541.68.955-1.654 2.02-.541a.43.43 0 1 0-.223-.83l-1.19.318.915-1.584a.43.43 0 1 0-.744-.43l-.914 1.584-.32-1.189a.43.43 0 0 0-.83.223l.542 2.019-.56.968a7.706 7.706 0 0 0-1.04-3.956 7.772 7.772 0 0 0-3.95-3.367l-.008-.003-1.944-.79a.43.43 0 1 0-.323.797l1.927.782a6.91 6.91 0 0 1 3.554 3.01 6.854 6.854 0 0 1 .685 5.245 6.887 6.887 0 0 1-2.867 3.977l-.72-1.25 1.563-5.834a.43.43 0 1 0-.83-.223l-1.341 5.005-1.591-2.755 1.084-4.048a.43.43 0 1 0-.83-.223l-.862 3.218-1.254-2.172.653-2.438a.43.43 0 1 0-.83-.222l-.43 1.607-1.189-2.058a.43.43 0 1 0-.744.43L5.47 8.374l-1.608-.43a.43.43 0 1 0-.222.83l2.438.653 1.254 2.172-3.218-.862a.43.43 0 1 0-.222.83l4.047 1.085 1.591 2.755-5.004-1.34a.43.43 0 1 0-.223.83l5.835 1.563.721 1.249c-3.247 1.618-7.243.453-9.076-2.722a6.907 6.907 0 0 1-.827-4.6.417.417 0 0 0 .006-.064l1.227-8.54L5.036 2.94a.43.43 0 1 0 .323-.797L2.003.78a.43.43 0 0 0-.587.337L.103 10.256a.427.427 0 0 0-.004.043 7.768 7.768 0 0 0 .94 5.117 7.77 7.77 0 0 0 6.74 3.878 7.75 7.75 0 0 0 3.51-.84l.528.914a.43.43 0 1 0 .745-.43l-.196-.338a6.57 6.57 0 0 0 4.745.52 6.54 6.54 0 0 0 4.008-3.07 6.592 6.592 0 0 0 .797-4.338z" />
        </g>
      </g>
    </g>
  </symbol>


  <symbol id="icon_Outside" width="18" height="20" viewBox="0 0 18 20">
    <g>
      <g>
        <g>
          <g>
            <g>
              <path fill="#ec1469"
                d="M15.577 18.493h-2.26V7.033c0-.137.112-.248.248-.248h1.765c.136 0 .247.11.247.247zm-5.703 0h-2.26v-6.268c0-.137.111-.248.248-.248h1.764c.137 0 .248.111.248.248zm-5.703 0H1.91v-3.246c0-.137.111-.248.248-.248h1.764c.136 0 .248.111.248.248z" />
            </g>
          </g>
        </g>
        <g>
          <g>
            <g>
              <path fill="#ec1469"
                d="M16.296 1.166a.359.359 0 0 0-.377-.378h-2.195a.36.36 0 1 0 0 .719h1.344l-3.557 3.558-1.342-1.342a.36.36 0 0 0-.509 0l-6.47 6.47a.36.36 0 0 0 .51.508l6.215-6.215 1.341 1.342c.14.14.369.14.51 0l3.811-3.812v1.217a.36.36 0 1 0 .72 0v-2.05-.017z" />
            </g>
          </g>
        </g>
        <g>
          <g>
            <g>
              <path fill="#ec1469" d="M1.872 11.703a.36.36 0 1 1 .72 0 .36.36 0 0 1-.72 0z" />
            </g>
          </g>
        </g>
      </g>
    </g>
  </symbol>

  <symbol id="icon_cycle_information" width="17" height="18" viewBox="0 0 17 18">
    <g>
      <g>
        <g>
          <path fill="#ec1469"
            d="M4.725 17.563a.589.589 0 0 1-.417-.173l-2.362-2.362a.59.59 0 1 1 .835-.835l2.362 2.362a.59.59 0 0 1-.417 1.008z" />
        </g>
        <g>
          <path fill="#ec1469"
            d="M4.725 14.61a.589.589 0 0 1-.417-.172l-.59-.591a.59.59 0 1 1 .834-.835l.591.59a.59.59 0 0 1-.417 1.009z" />
        </g>
        <g>
          <path fill="#ec1469"
            d="M7.678 14.61a.588.588 0 0 1-.417-.172l-2.363-2.363a.59.59 0 1 1 .836-.835l2.362 2.362a.59.59 0 0 1-.418 1.009z" />
        </g>
        <g>
          <path fill="#ec1469"
            d="M11.812 9.296a3.843 3.843 0 0 1-3.838-3.84 3.843 3.843 0 0 1 3.838-3.838 3.843 3.843 0 0 1 3.839 3.839 3.843 3.843 0 0 1-3.839 3.839zm0-8.859a5.026 5.026 0 0 0-5.02 5.02c0 1.096.357 2.107.956 2.934L.174 15.965a.59.59 0 1 0 .835.835l7.538-7.538a4.993 4.993 0 0 0 3.265 1.215 5.026 5.026 0 0 0 5.02-5.02 5.026 5.026 0 0 0-5.02-5.02z" />
        </g>
      </g>
    </g>
  </symbol>

  <symbol id="icon_popular_gold" width="20" height="19" viewBox="0 0 20 19">
    <g>
      <g>
        <g>
          <path fill="#ec1469"
            d="M18.791 7.375c-.373 1.583-1.239 3.025-2.5 4.168l-6.48 5.78-6.368-5.779C2.179 10.4 1.313 8.957.94 7.374.67 6.237.78 5.594.782 5.59l.006-.038C1.034 2.775 2.962.759 5.372.759c1.779 0 3.345 1.093 4.088 2.851l.349.829.35-.829c.73-1.731 2.379-2.85 4.2-2.85 2.41 0 4.338 2.015 4.59 4.828 0 .006.11.65-.158 1.786zm.907-1.905C19.41 2.3 17.166 0 14.358 0c-1.87 0-3.583 1.007-4.547 2.62C8.856.986 7.213 0 5.372 0 2.565 0 .321 2.3.033 5.47c-.023.14-.116.877.168 2.078.409 1.734 1.354 3.31 2.732 4.559l6.873 6.237 6.992-6.237c1.378-1.249 2.323-2.825 2.732-4.559.284-1.201.19-1.938.168-2.078z" />
        </g>
        <g>
          <path fill="#ec1469"
            d="M6.071 2.306a3.799 3.799 0 0 0-3.795 3.795.38.38 0 1 0 .76 0A3.04 3.04 0 0 1 6.07 3.065a.38.38 0 1 0 0-.759z" />
        </g>
      </g>
    </g>
  </symbol>

  <symbol id="icon_plus" width="18" height="18" viewBox="0 0 18 18">
    <g>
      <g>
        <path fill="currentColor"
          d="M17.297 8.297H9.703V.703a.703.703 0 1 0-1.406 0v7.594H.703a.703.703 0 1 0 0 1.406h7.594v7.594a.703.703 0 1 0 1.406 0V9.703h7.594a.703.703 0 1 0 0-1.406z" />
      </g>
    </g>
  </symbol>

  <symbol id="icon_close" width="4" height="4" viewBox="0 0 4 4">
    <g>
      <g>
        <path fill="currentColor"
          d="M2.354 2L3.927.427a.25.25 0 1 0-.354-.354L2 1.646.427.073a.25.25 0 1 0-.354.354L1.646 2 .073 3.573a.25.25 0 1 0 .354.353L2 2.354l1.573 1.572a.25.25 0 0 0 .354 0 .25.25 0 0 0 0-.353z" />
      </g>
    </g>
  </symbol>

  <symbol id="icon_arrow_right" width="4" height="6" viewBox="0 0 4 6">
    <g>
      <g>
        <path fill="#999"
          d="M3.777 2.766L1.107.096A.326.326 0 0 0 .875 0a.326.326 0 0 0-.232.096L.446.292a.329.329 0 0 0 0 .465l2.242 2.242L.444 5.243a.326.326 0 0 0 0 .464l.196.197A.326.326 0 0 0 .872 6c.088 0 .17-.034.233-.096l2.672-2.672a.326.326 0 0 0 .096-.233.326.326 0 0 0-.096-.233z" />
      </g>
    </g>
  </symbol>

  <symbol id="icon_date" width="15" height="17" viewBox="0 0 15 17">
    <g>
      <g>
        <g>
          <path fill="currentColor" d="M15.074 3.135h-4.68l4.68 1.336z" />
        </g>
        <g>
          <path fill="currentColor" d="M15.074 15.078V6.291l-2.56 8.787z" />
        </g>
        <g>
          <path fill="currentColor"
            d="M14.822 5.02l-6.91-2.01-.004-.004v1.868a.933.933 0 0 1-1.866 0v-1.24a.299.299 0 0 1 .597 0v1.24a.336.336 0 1 0 .672 0v-2.04L6.16 2.5l.03.001a.3.3 0 0 0 .299-.298V.92c0-.183.162-.324.345-.324h.126c.183 0 .35.141.35.324v1.912l.014.004.583.17V.92C7.908.41 7.474 0 6.961 0h-.126a.935.935 0 0 0-.942.921v1.283c-.001.112.062.215.162.266l-2.711-.784L0 13.166 11.479 16.5z" />
        </g>
      </g>
    </g>
  </symbol>

  <symbol id="icon_eye" width="16" height="10" viewBox="0 0 16 10">
    <g>
      <g>
        <g>
          <path fill="currentColor"
            d="M10.167 4.81a1.742 1.742 0 0 0-1.852-1.852c-.87.057-1.576.76-1.63 1.629A1.742 1.742 0 0 0 8.539 6.44a1.752 1.752 0 0 0 1.63-1.63zm-1.53 3.123a3.241 3.241 0 0 1-3.445-3.444 3.247 3.247 0 0 1 3.022-3.021 3.241 3.241 0 0 1 3.444 3.443 3.257 3.257 0 0 1-3.022 3.022zM8.424.11C5.482.11 2.814 1.72.845 4.335a.61.61 0 0 0 0 .728C2.813 7.68 5.481 9.29 8.424 9.29c2.943 0 5.611-1.61 7.58-4.225a.61.61 0 0 0 0-.728C14.038 1.72 11.369.11 8.426.11z" />
        </g>
      </g>
    </g>
  </symbol>

  <symbol id="icon_datetime" width="10" height="10" viewBox="0 0 10 10">
    <g>
      <g>
        <g>
          <g>
            <g>
              <path fill="currentColor"
                d="M9.219 2.89H.78v-.937c0-.215.175-.39.39-.39h.47v.78h.78v-.78h5.157v.78h.781v-.78h.47c.215 0 .39.175.39.39zm0 5.938c0 .216-.175.39-.39.39H1.171a.391.391 0 0 1-.39-.39V3.672h8.437zM8.829.781h-.47V0h-.78v.781H2.421V0H1.64v.781h-.47C.527.781 0 1.307 0 1.953v6.875C0 9.474.526 10 1.172 10h7.656C9.474 10 10 9.474 10 8.828V1.953C10 1.307 9.474.781 8.828.781z" />
            </g>
          </g>
        </g>
        <g>
          <g>
            <g>
              <path fill="currentColor" d="M1.479 5.266v-.782h.782v.782z" />
            </g>
          </g>
        </g>
        <g>
          <g>
            <g>
              <path fill="currentColor" d="M3.039 5.266v-.782h.782v.782z" />
            </g>
          </g>
        </g>
        <g>
          <g>
            <g>
              <path fill="currentColor" d="M4.601 5.266v-.782h.782v.782z" />
            </g>
          </g>
        </g>
        <g>
          <g>
            <g>
              <path fill="currentColor" d="M6.163 5.266v-.782h.783v.782z" />
            </g>
          </g>
        </g>
        <g>
          <g>
            <g>
              <path fill="currentColor" d="M7.723 5.266v-.782h.782v.782z" />
            </g>
          </g>
        </g>
        <g>
          <g>
            <g>
              <path fill="currentColor" d="M1.479 6.829v-.783h.782v.783z" />
            </g>
          </g>
        </g>
        <g>
          <g>
            <g>
              <path fill="currentColor" d="M3.039 6.829v-.783h.782v.783z" />
            </g>
          </g>
        </g>
        <g>
          <g>
            <g>
              <path fill="currentColor" d="M4.601 6.829v-.783h.782v.783z" />
            </g>
          </g>
        </g>
        <g>
          <g>
            <g>
              <path fill="currentColor" d="M6.163 6.829v-.783h.783v.783z" />
            </g>
          </g>
        </g>
        <g>
          <g>
            <g>
              <path fill="currentColor" d="M1.479 8.39v-.782h.782v.783z" />
            </g>
          </g>
        </g>
        <g>
          <g>
            <g>
              <path fill="currentColor" d="M3.039 8.39v-.782h.782v.783z" />
            </g>
          </g>
        </g>
        <g>
          <g>
            <g>
              <path fill="currentColor" d="M4.601 8.39v-.782h.782v.783z" />
            </g>
          </g>
        </g>
        <g>
          <g>
            <g>
              <path fill="currentColor" d="M6.163 8.39v-.782h.783v.783z" />
            </g>
          </g>
        </g>
        <g>
          <g>
            <g>
              <path fill="currentColor" d="M7.723 6.829v-.783h.782v.783z" />
            </g>
          </g>
        </g>
      </g>
    </g>
  </symbol>

  <symbol id="icon_independence" width="18" height="18" viewBox="0 0 18 18">
    <g id="Group_1550" data-name="Group 1550">
      <g id="Group_1549" data-name="Group 1549">
        <path id="Path_4621" data-name="Path 4621"
          d="M17.609,17.217a1.959,1.959,0,0,1-1.957-1.957V2.739A2.742,2.742,0,0,0,12.913,0H2.739A2.742,2.742,0,0,0,0,2.739a.391.391,0,0,0,.391.391H3.13v12.13A2.743,2.743,0,0,0,5.87,18H17.609a.391.391,0,1,0,0-.783ZM.822,2.348A1.96,1.96,0,0,1,2.739.783H11a2.733,2.733,0,0,0-.8,1.565ZM5.87,17.217a1.959,1.959,0,0,1-1.957-1.957V3.13h6.652a.391.391,0,0,0,.391-.391,1.957,1.957,0,0,1,3.913,0V15.261a2.729,2.729,0,0,0,.826,1.957Z"
          fill="#59c6b1" />
      </g>
    </g>
    <g id="Group_1552" data-name="Group 1552" transform="translate(5.458 5.477)">
      <g id="Group_1551" data-name="Group 1551">
        <path id="Path_4622" data-name="Path 4622"
          d="M119.47,112h-7.077a.393.393,0,1,0,0,.786h7.077a.393.393,0,0,0,0-.786Z" transform="translate(-112 -112)"
          fill="#59c6b1" />
      </g>
    </g>
    <g id="Group_1554" data-name="Group 1554" transform="translate(5.458 7.824)">
      <g id="Group_1553" data-name="Group 1553">
        <path id="Path_4623" data-name="Path 4623"
          d="M119.47,160h-7.077a.393.393,0,1,0,0,.786h7.077a.393.393,0,0,0,0-.786Z" transform="translate(-112 -160)"
          fill="#59c6b1" />
      </g>
    </g>
    <g id="Group_1556" data-name="Group 1556" transform="translate(5.458 10.172)">
      <g id="Group_1555" data-name="Group 1555">
        <path id="Path_4624" data-name="Path 4624"
          d="M119.47,208h-7.077a.393.393,0,1,0,0,.786h7.077a.393.393,0,0,0,0-.786Z" transform="translate(-112 -208)"
          fill="#59c6b1" />
      </g>
    </g>
    <g id="Group_1558" data-name="Group 1558" transform="translate(6.245 12.519)">
      <g id="Group_1557" data-name="Group 1557">
        <path id="Path_4625" data-name="Path 4625" d="M133.9,256h-5.5a.393.393,0,1,0,0,.786h5.5a.393.393,0,1,0,0-.786Z"
          transform="translate(-128 -256)" fill="#59c6b1" />
      </g>
    </g>
  </symbol>

  <symbol id="icon_reply" width="18.008" height="13.506" viewBox="0 0 18.008 13.506">
    <g id="Group_1559" data-name="Group 1559" transform="translate(0 0)">
      <path id="Path_4626" data-name="Path 4626"
        d="M17.843,69.8l-5.627-5.629a.563.563,0,0,0-.961.4V67.38H9.567A9.577,9.577,0,0,0,0,76.947a.562.562,0,0,0,.407.54.529.529,0,0,0,.155.023.563.563,0,0,0,.477-.264l.169-.27a8.495,8.495,0,0,1,7.154-3.967h2.892v2.814a.563.563,0,0,0,.961.4l5.627-5.627A.563.563,0,0,0,17.843,69.8ZM12.38,74.463V72.445a.563.563,0,0,0-.563-.563H8.362A9.638,9.638,0,0,0,1.37,74.929a8.455,8.455,0,0,1,8.2-6.423h2.251a.563.563,0,0,0,.563-.563V65.925l4.269,4.269Z"
        transform="translate(0 -64.004)" fill="#EC1469" />
    </g>
  </symbol>

  <symbol id="icon_prev" width="6.166" height="10" viewBox="0 0 6.166 10">
    <g transform="translate(0)">
      <g transform="translate(0)">
        <path d="M63.65,0l1.167,1.167L60.983,5l3.833,3.833L63.65,10l-5-5Z" transform="translate(-58.65)"
          fill="currentColor" />
      </g>
    </g>
  </symbol>
  <symbol id="icon_first" width="10.166" height="10" viewBox="0 0 10.166 10">
    <g transform="translate(0)">
      <g transform="translate(4)">
        <g transform="translate(0)">
          <path d="M63.65,0l1.167,1.167L60.983,5l3.833,3.833L63.65,10l-5-5Z" transform="translate(-58.65)"
            fill="currentColor" />
        </g>
      </g>
      <g transform="translate(0)">
        <g transform="translate(0)">
          <path d="M63.65,0l1.167,1.167L60.983,5l3.833,3.833L63.65,10l-5-5Z" transform="translate(-58.65)"
            fill="currentColor" />
        </g>
      </g>
    </g>
  </symbol>
  <symbol id="icon_menu-list" width="18" height="15.781" viewBox="0 0 18 15.781">
    <g transform="translate(0 -29.25)">
      <g transform="translate(0 29.25)">
        <path
          d="M1.94,33.133A1.942,1.942,0,1,0,0,31.19,1.942,1.942,0,0,0,1.94,33.133Zm0-2.982A1.038,1.038,0,1,1,.9,31.19,1.039,1.039,0,0,1,1.94,30.152Z"
          transform="translate(0 -29.25)" fill="currentColor" />
        <path
          d="M1.94,196.03A1.94,1.94,0,1,0,0,194.09,1.942,1.942,0,0,0,1.94,196.03Zm0-2.978A1.038,1.038,0,1,1,.9,194.09,1.039,1.039,0,0,1,1.94,193.052Z"
          transform="translate(0 -186.199)" fill="currentColor" />
        <path
          d="M1.94,358.93A1.94,1.94,0,1,0,0,356.99,1.943,1.943,0,0,0,1.94,358.93Zm0-2.982A1.038,1.038,0,1,1,.9,356.986,1.039,1.039,0,0,1,1.94,355.948Z"
          transform="translate(0 -343.148)" fill="currentColor" />
        <path d="M164.053,70.556h11.1a.453.453,0,0,0,0-.906h-11.1a.453.453,0,0,0,0,.906Z"
          transform="translate(-157.604 -68.163)" fill="currentColor" />
        <path d="M164.053,233.456h11.1a.453.453,0,0,0,0-.906h-11.1a.453.453,0,0,0,0,.906Z"
          transform="translate(-157.604 -225.112)" fill="currentColor" />
        <path d="M164.053,396.256h11.1a.453.453,0,0,0,0-.906h-11.1a.453.453,0,0,0,0,.906Z"
          transform="translate(-157.604 -381.965)" fill="currentColor" />
      </g>
    </g>
  </symbol>
  <symbol id="icon_exclamation" width="2.359" height="10.804" viewBox="0 0 2.359 10.804">
    <g transform="translate(-229 -128.877)">
      <g transform="translate(229.306 128.877)">
        <g transform="translate(0)">
          <path
            d="M236.874,128.877a.874.874,0,0,0-.874.874v5.627a.874.874,0,0,0,1.748,0v-5.627A.874.874,0,0,0,236.874,128.877Z"
            transform="translate(-236 -128.877)" fill="currentColor" />
        </g>
      </g>
      <g transform="translate(229 137.322)">
        <g transform="translate(0)">
          <circle cx="1.18" cy="1.18" r="1.18" fill="currentColor" />
        </g>
      </g>
    </g>
  </symbol>
  <symbol id="icon_play_arrow" width="6" height="7.637" viewBox="0 0 6 7.637">
    <g transform="translate(0 0)">
      <g data-name="play-arrow" transform="translate(0)">
        <path data-name="Path 4585" d="M44.25,0V7.636l-6-3.818Z" transform="translate(-38.25)" fill="#444" />
      </g>
    </g>
  </symbol>
  <symbol id="icon_search" width="14" height="14" viewBox="0 0 14 14">
    <g data-name="magnifying-glass (3)" transform="translate(-11 -11)">
      <path data-name="Path 4587"
        d="M24.829,24.006,21.463,20.64a5.9,5.9,0,1,0-.826.826L24,24.829a.583.583,0,0,0,.826-.823ZM16.9,21.626A4.727,4.727,0,1,1,21.629,16.9,4.732,4.732,0,0,1,16.9,21.626Z"
        fill="currentColor" />
    </g>
  </symbol>
  <symbol id="icon_file" width="20.239" height="21.214" viewBox="0 0 20.239 21.214">
    <g id="Group_1438" data-name="Group 1438" transform="translate(-944.451 -1021.291)">
      <path id="attachment"
        d="M21.3,7.892a.41.41,0,0,0-.581,0L9.505,19.109a4.4,4.4,0,0,1-6.216-6.216L14.505,1.676a3.014,3.014,0,0,1,4.347.17,3.014,3.014,0,0,1,.17,4.347L8.486,16.73a1.512,1.512,0,0,1-2.138-2.138l7.138-7.138a.411.411,0,0,0-.581-.581L5.767,14.01a2.334,2.334,0,0,0,3.3,3.3L19.6,6.773a3.816,3.816,0,0,0-.17-5.51,3.816,3.816,0,0,0-5.51-.17L2.708,12.311a5.218,5.218,0,0,0,7.379,7.379L21.3,8.473A.41.41,0,0,0,21.3,7.892Z"
        transform="translate(943.266 1021.292)" fill="#444" />
    </g>
  </symbol>
  <symbol id="icon_plus_mini" width="12.121" height="12.121" viewBox="0 0 12.121 12.121">
    <g>
      <path data-name="Path 4606" d="M12.121,6.926H6.926v5.195H5.195V6.926H0V5.195H5.195V0H6.926V5.195h5.195Z"
        fill="#fff" />
    </g>
  </symbol>
  <symbol id="icon_plus_big" data-name="Group 1219" xmlns="http://www.w3.org/2000/svg" width="30" height="30"
    viewBox="0 0 30 30">
    <path data-name="Path 4524"
      d="M28.828,13.828H16.172V1.172a1.172,1.172,0,0,0-2.344,0V13.828H1.172a1.172,1.172,0,0,0,0,2.344H13.828V28.828a1.172,1.172,0,0,0,2.344,0V16.172H28.828a1.172,1.172,0,0,0,0-2.344Z"
      fill="currentColor" />
  </symbol>
  M12.121,6.926H5.195V6.926H0V5.195H6.926V5.195h5.195Z
  <symbol id="icon_minus" width="12.121" height="12.121" viewBox="0 0 12.121 12.121">
    <g>
      <path data-name="Path 4606" d="M12.121,6.926H5.195V6.926H0V5.195H6.926V5.195h5.195Z" fill="currentColor" />
    </g>
  </symbol>
  <symbol id="icon_calender" data-name="calendar (9)" xmlns="http://www.w3.org/2000/svg" width="19.974" height="16.578"
    viewBox="0 0 19.974 16.578">
    <path data-name="Path 4597"
      d="M12.283,179.485H1.073A.488.488,0,0,1,.585,179v-8.576a.293.293,0,1,0-.585,0V179a1.074,1.074,0,0,0,1.073,1.073h11.21a.293.293,0,1,0,0-.585Zm0,0"
      transform="translate(0 -163.492)" fill="currentColor" />
    <path data-name="Path 4598"
      d="M18.9,1.754H16.736V1.073A1.074,1.074,0,0,0,15.663,0h-.117a1.074,1.074,0,0,0-1.073,1.073v.681H5.5V1.073A1.074,1.074,0,0,0,4.428,0H4.311A1.074,1.074,0,0,0,3.238,1.073v.681H1.073A1.074,1.074,0,0,0,0,2.827V5.564a.293.293,0,1,0,.585,0V2.827a.488.488,0,0,1,.488-.488H3.238V3.02A1.074,1.074,0,0,0,4.311,4.093h.117A1.074,1.074,0,0,0,5.5,3.02V2.339h8.972V3.02a1.074,1.074,0,0,0,1.073,1.073h.117A1.074,1.074,0,0,0,16.736,3.02V2.339H18.9a.488.488,0,0,1,.488.488V15.505a.488.488,0,0,1-.488.488H13.648a.293.293,0,1,0,0,.585H18.9a1.074,1.074,0,0,0,1.073-1.073V2.827A1.074,1.074,0,0,0,18.9,1.754ZM4.916,3.02a.488.488,0,0,1-.488.488H4.311a.488.488,0,0,1-.488-.488V1.073A.488.488,0,0,1,4.311.585h.117a.488.488,0,0,1,.488.488Zm11.235,0a.488.488,0,0,1-.488.488h-.117a.488.488,0,0,1-.488-.488V1.073a.488.488,0,0,1,.488-.488h.117a.488.488,0,0,1,.488.488Zm0,0"
      fill="currentColor" />
    <path data-name="Path 4599"
      d="M63.073,139.017h1.755a1.074,1.074,0,0,0,1.073-1.073V136.2a1.074,1.074,0,0,0-1.073-1.073H63.073A1.074,1.074,0,0,0,62,136.2v1.742A1.074,1.074,0,0,0,63.073,139.017Zm-.488-2.815a.488.488,0,0,1,.488-.488h1.755a.488.488,0,0,1,.488.488v1.742a.488.488,0,0,1-.488.488H63.073a.488.488,0,0,1-.488-.488Zm0,0"
      transform="translate(-59.581 -129.857)" fill="currentColor" />
    <path data-name="Path 4600"
      d="M62,279.12a1.074,1.074,0,0,0,1.073,1.073h1.755A1.074,1.074,0,0,0,65.9,279.12v-1.742a1.074,1.074,0,0,0-1.073-1.073H63.073A1.074,1.074,0,0,0,62,277.378Zm.585-1.742a.488.488,0,0,1,.488-.488h1.755a.488.488,0,0,1,.488.488v1.742a.488.488,0,0,1-.488.488H63.073a.488.488,0,0,1-.488-.488Zm0,0"
      transform="translate(-59.581 -265.526)" fill="currentColor" />
    <path data-name="Path 4601"
      d="M351.073,139.017h1.755a1.074,1.074,0,0,0,1.073-1.073V136.2a1.074,1.074,0,0,0-1.073-1.073h-1.755A1.074,1.074,0,0,0,350,136.2v1.742A1.074,1.074,0,0,0,351.073,139.017Zm-.488-2.815a.488.488,0,0,1,.488-.488h1.755a.488.488,0,0,1,.488.488v1.742a.488.488,0,0,1-.488.488h-1.755a.488.488,0,0,1-.488-.488Zm0,0"
      transform="translate(-336.346 -129.857)" fill="currentColor" />
    <path data-name="Path 4602"
      d="M350,279.12a1.074,1.074,0,0,0,1.073,1.073h1.755a1.074,1.074,0,0,0,1.073-1.073v-1.742a1.074,1.074,0,0,0-1.073-1.073h-1.755A1.074,1.074,0,0,0,350,277.378Zm.585-1.742a.488.488,0,0,1,.488-.488h1.755a.488.488,0,0,1,.488.488v1.742a.488.488,0,0,1-.488.488h-1.755a.488.488,0,0,1-.488-.488Zm0,0"
      transform="translate(-336.346 -265.526)" fill="currentColor" />
    <path data-name="Path 4603"
      d="M206.293,137.435a.293.293,0,0,0-.293.293v.216a1.074,1.074,0,0,0,1.073,1.073h1.755a1.074,1.074,0,0,0,1.073-1.073V136.2a1.074,1.074,0,0,0-1.073-1.073h-1.755A1.074,1.074,0,0,0,206,136.2v.16a.293.293,0,1,0,.585,0v-.16a.488.488,0,0,1,.488-.488h1.755a.488.488,0,0,1,.488.488v1.742a.488.488,0,0,1-.488.488h-1.755a.488.488,0,0,1-.488-.488v-.216A.293.293,0,0,0,206.293,137.435Zm0,0"
      transform="translate(-197.964 -129.857)" fill="currentColor" />
    <path data-name="Path 4604"
      d="M206,279.12a1.074,1.074,0,0,0,1.073,1.073h1.755a1.074,1.074,0,0,0,1.073-1.073v-1.742a1.074,1.074,0,0,0-1.073-1.073h-1.755A1.074,1.074,0,0,0,206,277.378Zm.585-1.742a.488.488,0,0,1,.488-.488h1.755a.488.488,0,0,1,.488.488v1.742a.488.488,0,0,1-.488.488h-1.755a.488.488,0,0,1-.488-.488Zm0,0"
      transform="translate(-197.964 -265.526)" fill="currentColor" />
  </symbol>
  <symbol id="icon_lookup" width="19.973" height="10.869" viewBox="0 0 19.973 10.869">
    <g data-name="eye (1)" transform="translate(0 -100.736)">
      <g data-name="Group 1445" transform="translate(0 100.736)">
        <path id="Path_4580" data-name="Path 4580"
          d="M9.986,111.606A12.258,12.258,0,0,1,3,109.065a17.7,17.7,0,0,1-2.858-2.525.565.565,0,0,1,0-.74A17.7,17.7,0,0,1,3,103.276a12.259,12.259,0,0,1,6.99-2.54,12.258,12.258,0,0,1,6.99,2.54,17.7,17.7,0,0,1,2.858,2.525.565.565,0,0,1,0,.74,17.7,17.7,0,0,1-2.858,2.525A12.258,12.258,0,0,1,9.986,111.606Zm-8.647-5.435a17.826,17.826,0,0,0,2.336,1.991,11.352,11.352,0,0,0,6.312,2.314,11.352,11.352,0,0,0,6.312-2.314,17.827,17.827,0,0,0,2.336-1.991A17.822,17.822,0,0,0,16.3,104.18a11.352,11.352,0,0,0-6.312-2.314,11.352,11.352,0,0,0-6.312,2.314A17.82,17.82,0,0,0,1.339,106.171Z"
          transform="translate(0 -100.736)" fill="currentColor" />
      </g>
      <g data-name="Group 1446" transform="translate(6.485 102.669)">
        <path id="Path_4581" data-name="Path 4581"
          d="M147.022,150.524a3.5,3.5,0,1,1,2.307-6.136.565.565,0,0,1-.744.85,2.372,2.372,0,1,0,.81,1.785.565.565,0,0,1,1.13,0A3.506,3.506,0,0,1,147.022,150.524Z"
          transform="translate(-143.52 -143.521)" fill="currentColor" />
      </g>
      <g data-name="Group 1447" transform="translate(8.857 105.041)">
        <path id="Path_4582" data-name="Path 4582"
          d="M197.15,198.28a1.13,1.13,0,1,1,1.13-1.13A1.131,1.131,0,0,1,197.15,198.28Z"
          transform="translate(-196.02 -196.021)" fill="currentColor" />
      </g>
    </g>
  </symbol>
  <symbol id="icon_like" width="16.102" height="16.564" viewBox="0 0 16.102 16.564">
    <g data-name="like (2)" transform="translate(-6.675 0)">
      <path id="Path_4583" data-name="Path 4583"
        d="M22.294,11.261a2.058,2.058,0,0,0,.481-1.375,2.113,2.113,0,0,0-.45-1.192,1.851,1.851,0,0,0-.44-2.13A3.825,3.825,0,0,0,19.1,5.9a10.871,10.871,0,0,0-1.7.218h0c-.173.031-.357.069-.544.111a6.043,6.043,0,0,1,.433-2.013c.485-1.476.457-2.6-.09-3.36A2.2,2.2,0,0,0,15.432,0a.87.87,0,0,0-.669.3,2.33,2.33,0,0,0-.291,1.652c-.457,1.226-1.739,4.233-2.823,5.068a.371.371,0,0,0-.055.048,3.721,3.721,0,0,0-.679,1.018,1.429,1.429,0,0,0-.686-.173H8.116A1.442,1.442,0,0,0,6.675,9.359v5.629a1.442,1.442,0,0,0,1.441,1.441h2.113a1.438,1.438,0,0,0,.831-.263l.814.1a34.875,34.875,0,0,0,4.617.253c.412.031.8.048,1.16.048a7.772,7.772,0,0,0,1.611-.145,3.012,3.012,0,0,0,2.151-1.337,2.12,2.12,0,0,0,.236-1.327,2.209,2.209,0,0,0,.786-1.8A2.34,2.34,0,0,0,22.294,11.261ZM8.116,15.494a.506.506,0,0,1-.506-.506V9.356a.506.506,0,0,1,.506-.506h2.113a.506.506,0,0,1,.506.506v5.629a.506.506,0,0,1-.506.506H8.116Zm13.291-4.638a.466.466,0,0,0-.062.565A1.441,1.441,0,0,1,21.5,12a1.386,1.386,0,0,1-.651,1.2.472.472,0,0,0-.159.533,1.223,1.223,0,0,1-.094.894,2.167,2.167,0,0,1-1.531.88,9.125,9.125,0,0,1-2.525.076h-.048a34.191,34.191,0,0,1-4.5-.246h0l-.35-.042a1.467,1.467,0,0,0,.031-.3V9.356a1.465,1.465,0,0,0-.066-.43,2.9,2.9,0,0,1,.644-1.188C13.8,6.505,15.324,2.345,15.39,2.165a.439.439,0,0,0,.021-.232,2.165,2.165,0,0,1,.045-1,1.243,1.243,0,0,1,.977.468,2.95,2.95,0,0,1-.042,2.518c-.582,1.763-.63,2.691-.17,3.1a.755.755,0,0,0,.755.135c.211-.048.412-.09.6-.121l.045-.01c1.063-.232,2.969-.374,3.63.229a1,1,0,0,1,.118,1.264.463.463,0,0,0,.083.6,1.312,1.312,0,0,1,.384.807A1.286,1.286,0,0,1,21.407,10.856Z"
        transform="translate(0 0)" fill="currentColor" />
    </g>
  </symbol>
  <symbol id="icon_timeline" width="17" height="17" viewBox="0 0 17 17">
    <path data-name="Path 4704"
      d="M15.583,10.1V2.833a1.418,1.418,0,0,0-1.417-1.417H12.042V.354a.354.354,0,0,0-.708,0V1.417H4.958V.354a.354.354,0,1,0-.708,0V1.417H1.417A1.418,1.418,0,0,0,0,2.833V14.167a1.418,1.418,0,0,0,1.417,1.417H10.1A3.894,3.894,0,1,0,15.583,10.1ZM.708,2.833a.709.709,0,0,1,.708-.708H4.25v.708a.708.708,0,1,0,.708.708V2.125h6.375v.708a.708.708,0,1,0,.708.708V2.125h2.125a.709.709,0,0,1,.708.708V4.958H.708Zm.708,12.042a.709.709,0,0,1-.708-.708v-8.5H14.875V9.638a3.889,3.889,0,0,0-5.237,5.237ZM13.1,16.292A3.188,3.188,0,1,1,16.292,13.1,3.191,3.191,0,0,1,13.1,16.292Z"
      fill="currentColor" />
  </symbol>
  <symbol id="icon_remove" width="15.833" height="17" viewBox="0 0 15.833 17">
    <g data-name="delete (1)" transform="translate(-12.633 0)">
      <g data-name="Group 1543" transform="translate(12.633)">
        <path data-name="Path 4613"
          d="M28.466,2.5H23.49V0H17.609V2.5H12.633V3.2h2.245L16.435,17h8.4L26.393,3.2h2.072V2.5ZM18.3.693h4.5V2.5H18.3Zm5.915,15.614H17.055L15.575,3.2H25.7Z"
          transform="translate(-12.633)" fill="#444" />
        <rect data-name="Rectangle 414" width="0.735" height="10.18" transform="translate(5.436 4.429)"
          fill="currentColor" />
        <rect data-name="Rectangle 415" width="0.735" height="10.18" transform="translate(7.635 4.429)"
          fill="currentColor" />
        <rect data-name="Rectangle 416" width="0.735" height="10.18" transform="translate(9.834 4.429)"
          fill="currentColor" />
      </g>
    </g>
  </symbol>
  <symbol id="icon_document" width="13.305" height="17" viewBox="0 0 13.305 17">
    <g data-name="document (1)" transform="translate(-0.25)">
      <path data-name="Path 4614"
        d="M11.5,22.32H4.73a.3.3,0,0,0,0,.6H11.2V37.147H.851v-11.7l2.083-2.1v1.669H2.118a.3.3,0,0,0,0,.6H3.235a.3.3,0,0,0,.3-.3v-2.7a.3.3,0,0,0-.186-.279.3.3,0,0,0-.327.065L.338,25.11a.3.3,0,0,0-.088.214V37.449a.3.3,0,0,0,.3.3H11.5a.3.3,0,0,0,.3-.3V22.623A.3.3,0,0,0,11.5,22.32Zm0,0"
        transform="translate(0 -20.752)" fill="currentColor" />
      <path data-name="Path 4615"
        d="M79.828,0H70.156A.33.33,0,0,0,69.8.3a.33.33,0,0,0,.351.3h9.319V15.129a.355.355,0,0,0,.7,0V.3A.329.329,0,0,0,79.828,0Zm0,0"
        transform="translate(-66.624)" fill="currentColor" />
      <path data-name="Path 4616" d="M55.343,115.949H49.39a.351.351,0,0,0,0,.7h5.953a.351.351,0,0,0,0-.7Zm0,0"
        transform="translate(-46.14 -108.885)" fill="currentColor" />
      <path data-name="Path 4617" d="M113.731,161.5h-1.54a.351.351,0,0,0,0,.7h1.54a.351.351,0,0,0,0-.7Zm0,0"
        transform="translate(-104.927 -151.657)" fill="currentColor" />
      <path data-name="Path 4618" d="M49.39,162.2h2.976a.351.351,0,0,0,0-.7H49.39a.351.351,0,0,0,0,.7Zm0,0"
        transform="translate(-45.94 -151.657)" fill="currentColor" />
      <path data-name="Path 4619" d="M49.39,207.746h5.953a.351.351,0,0,0,0-.7H49.39a.351.351,0,0,0,0,.7Zm0,0"
        transform="translate(-46.14 -194.429)" fill="currentColor" />
    </g>
  </symbol>
  <symbol id="icon_share" width="15.849" height="17" viewBox="0 0 15.849 17">
    <path data-name="share (2)"
      d="M12.927,12.082a2.922,2.922,0,0,0-.393.492L7.554,9.552a2.849,2.849,0,0,0,0-2.128l4.981-3a2.9,2.9,0,1,0-.26-.516l-4.987,3a2.882,2.882,0,1,0,0,3.153l4.986,3.027a2.879,2.879,0,1,0,.653-1.009ZM14.964.576a2.305,2.305,0,1,1-2.305,2.305A2.308,2.308,0,0,1,14.964.576ZM4.879,10.793A2.305,2.305,0,1,1,7.184,8.488,2.308,2.308,0,0,1,4.879,10.793ZM16.594,15.75a2.305,2.305,0,1,1,.675-1.63A2.308,2.308,0,0,1,16.594,15.75Z"
      transform="translate(-1.997 0)" fill="currentColor" />
  </symbol>

  <symbol id="icon_star" width="17" height="16.151" viewBox="0 0 17 16.151">
    <path id="Path_4568" data-name="Path 4568"
      d="M16.261,8.669l-4.682-.443a.81.81,0,0,1-.671-.5L9.231,3.665a.8.8,0,0,0-1.489,0L6.079,7.73a.792.792,0,0,1-.671.5L.727,8.669A.809.809,0,0,0,.27,10.077l3.528,3.1a.8.8,0,0,1,.255.791l-1.06,4.346a.809.809,0,0,0,1.194.885l3.9-2.294a.812.812,0,0,1,.818,0l3.9,2.294a.807.807,0,0,0,1.194-.885l-1.046-4.346a.8.8,0,0,1,.255-.791l3.528-3.1A.819.819,0,0,0,16.261,8.669Z"
      transform="translate(0 -3.162)" fill="currentColor" />
  </symbol>

</svg>

